# xmcd CD database file
#
# Track frame offsets:
#	150
#	9400
#	23030
#	42932
#	59635
#	82707
#	96827
#	107722
#	126765
#	145065
#	162435
#	175532
#
# Disc length: 2404 seconds
#
# Revision: 0
# Processed by: cddbd v1.4PL0 Copyright (c) Steve Scherf et al.
# Submitted via: CDex 1.50Beta3
#
DISCID=8e09620c
DTITLE=Porter Hall Tennessee - Welcome to Porter Hall Tennessee
DYEAR=2002
DGENRE=Country
TTITLE0=Screwed Blue
TTITLE1=Halfway There (I'm Gone)
TTITLE2=Golden Chain of Hate
TTITLE3=Angel Without Wings
TTITLE4=Drunkard and the Angel
TTITLE5=Don't Bury Me
TTITLE6=Old Kentucky Home
TTITLE7=Middle Tennessee
TTITLE8=Slip Inside the House
TTITLE9=Crosses to Hang
TTITLE10=I've Got A Hedge
TTITLE11=Unkown
EXTD=YEAR: 2002
EXTT0=
EXTT1=
EXTT2=
EXTT3=
EXTT4=
EXTT5=
EXTT6=
EXTT7=
EXTT8=
EXTT9=
EXTT10=
EXTT11=
PLAYORDER=
